<svg height="150" viewBox="0 0 500 150" width="500" xmlns="http://www.w3.org/2000/svg"><path d="m464.725 0h-429.425c-1.358 0-2.7 0-4.053.007-1.133.007-2.257.029-3.4.047a48.988 48.988 0 0 0 -7.418.655 24.65 24.65 0 0 0 -7.037 2.32 23.824 23.824 0 0 0 -5.998 4.364 23.154 23.154 0 0 0 -4.361 6 24.449 24.449 0 0 0 -2.314 7.046 48.122 48.122 0 0 0 -.663 7.411c-.034 1.135-.038 2.273-.056 3.408v87.494c.018 1.15.022 2.263.056 3.413a48.1 48.1 0 0 0 .663 7.41 24.4 24.4 0 0 0 2.314 7.05 22.963 22.963 0 0 0 4.361 5.975 23.221 23.221 0 0 0 5.992 4.363 24.809 24.809 0 0 0 7.037 2.336 49.772 49.772 0 0 0 7.418.654c1.144.025 2.268.04 3.4.04 1.359.007 2.696.007 4.059.007h429.43c1.331 0 2.683 0 4.013-.007 1.128 0 2.285-.015 3.413-.04a49.121 49.121 0 0 0 7.4-.654 25.19 25.19 0 0 0 7.064-2.336 23.225 23.225 0 0 0 5.98-4.363 23.646 23.646 0 0 0 4.374-5.975 24.45 24.45 0 0 0 2.292-7.05 50.07 50.07 0 0 0 .687-7.41c.014-1.15.014-2.263.014-3.413.029-1.344.029-2.682.029-4.048v-79.404c0-1.356 0-2.7-.029-4.042 0-1.135 0-2.273-.014-3.408a50.1 50.1 0 0 0 -.687-7.411 24.5 24.5 0 0 0 -2.292-7.046 23.949 23.949 0 0 0 -10.36-10.364 25.026 25.026 0 0 0 -7.064-2.32 48.355 48.355 0 0 0 -7.4-.655c-1.128-.018-2.285-.04-3.413-.047-1.329-.007-2.681-.007-4.012-.007z" fill="#b6b6b6"/><path d="m31.26 146.761c-1.128 0-2.228-.014-3.347-.04a46.957 46.957 0 0 1 -6.919-.6 21.761 21.761 0 0 1 -6.133-2.029 19.982 19.982 0 0 1 -5.171-3.763 19.676 19.676 0 0 1 -3.778-5.169 21.205 21.205 0 0 1 -2.01-6.135 45.936 45.936 0 0 1 -.616-6.94c-.023-.781-.054-3.38-.054-3.38v-87.447s.032-2.559.054-3.311a45.732 45.732 0 0 1 .613-6.93 21.328 21.328 0 0 1 2.011-6.152 19.886 19.886 0 0 1 3.758-5.175 20.6 20.6 0 0 1 5.191-3.785 21.581 21.581 0 0 1 6.12-2.014 46.685 46.685 0 0 1 6.943-.607l3.34-.045h437.458l3.38.047a45.813 45.813 0 0 1 6.879.6 21.972 21.972 0 0 1 6.185 2.028 20.691 20.691 0 0 1 8.94 8.958 21.334 21.334 0 0 1 1.981 6.1 48.026 48.026 0 0 1 .643 6.985c.011 1.049.011 2.175.011 3.295.029 1.389.029 2.71.029 4.042v79.4c0 1.344 0 2.657-.029 3.98 0 1.2 0 2.306-.014 3.441a47.153 47.153 0 0 1 -.633 6.861 21.243 21.243 0 0 1 -2 6.182 20.253 20.253 0 0 1 -3.759 5.129 20.025 20.025 0 0 1 -5.18 3.785 21.712 21.712 0 0 1 -6.175 2.036 46.422 46.422 0 0 1 -6.919.6c-1.084.026-2.22.04-3.322.04l-4.013.007z"/><g fill="#fff"><path d="m167.538 99.86-4.338 13.14h-5.58l14.2-41.786h6.51l14.254 41.786h-5.766l-4.463-13.14zm13.7-4.215-4.092-12.028c-.93-2.727-1.55-5.207-2.17-7.625h-.123c-.621 2.48-1.3 5.022-2.108 7.564l-4.092 12.089z"/><path d="m196.741 92.793c0-3.844-.124-6.943-.248-9.8h4.9l.248 5.146h.124a11.8 11.8 0 0 1 10.664-5.829c7.253 0 12.709 6.138 12.709 15.251 0 10.788-6.572 16.12-13.639 16.12a10.525 10.525 0 0 1 -9.238-4.711h-.124v16.3h-5.393zm5.393 8a12.265 12.265 0 0 0 .248 2.231 8.418 8.418 0 0 0 8.184 6.386c5.766 0 9.113-4.712 9.113-11.594 0-6.013-3.161-11.159-8.927-11.159a8.706 8.706 0 0 0 -8.246 6.758 8.848 8.848 0 0 0 -.372 2.232z"/><path d="m229.29 92.793c0-3.844-.124-6.943-.248-9.8h4.9l.249 5.146h.124a11.793 11.793 0 0 1 10.663-5.829c7.254 0 12.71 6.138 12.71 15.251 0 10.788-6.573 16.12-13.64 16.12a10.522 10.522 0 0 1 -9.237-4.711h-.124v16.3h-5.397zm5.394 8a12.265 12.265 0 0 0 .248 2.231 8.416 8.416 0 0 0 8.183 6.386c5.766 0 9.114-4.712 9.114-11.594 0-6.013-3.162-11.159-8.928-11.159a8.7 8.7 0 0 0 -8.245 6.758 8.848 8.848 0 0 0 -.372 2.232z"/><path d="m294.944 111.144a38.929 38.929 0 0 1 -12.833 2.293c-6.323 0-11.531-1.611-15.623-5.517-3.6-3.472-5.828-9.051-5.828-15.561.063-12.462 8.618-21.575 22.629-21.575a25.835 25.835 0 0 1 10.416 1.922l-1.3 4.4a21.652 21.652 0 0 0 -9.237-1.8c-10.167 0-16.8 6.324-16.8 16.8 0 10.6 6.386 16.864 16.119 16.864 3.535 0 5.952-.5 7.192-1.117v-12.453h-8.493v-4.342h13.762z"/><path d="m318.505 113-.434-3.782h-.186a11.176 11.176 0 0 1 -9.175 4.464c-6.076 0-9.176-4.278-9.176-8.618 0-7.254 6.447-11.221 18.041-11.159v-.62c0-2.479-.681-6.943-6.819-6.943a14.96 14.96 0 0 0 -7.812 2.231l-1.24-3.6a18.621 18.621 0 0 1 9.858-2.666c9.175 0 11.407 6.262 11.407 12.276v11.221a42.251 42.251 0 0 0 .5 7.192zm-.805-15.31c-5.952-.124-12.709.931-12.709 6.758a4.828 4.828 0 0 0 5.146 5.208 7.466 7.466 0 0 0 7.253-5.021 5.706 5.706 0 0 0 .31-1.737z"/><path d="m328.487 68.986h5.456v44.014h-5.456z"/><path d="m343.119 68.986h5.456v44.014h-5.456z"/><path d="m359.177 98.993c.124 7.377 4.836 10.415 10.291 10.415a19.709 19.709 0 0 0 8.307-1.55l.931 3.906a24.3 24.3 0 0 1 -9.981 1.86c-9.238 0-14.756-6.076-14.756-15.127s5.332-16.182 14.073-16.182c9.8 0 12.4 8.619 12.4 14.136a20.84 20.84 0 0 1 -.185 2.542zm16-3.906c.062-3.472-1.426-8.865-7.564-8.865-5.517 0-7.935 5.083-8.369 8.865z"/><path d="m385.588 92.359c0-3.534-.062-6.572-.248-9.361h4.774l.186 5.89h.248c1.364-4.031 4.649-6.573 8.307-6.573a5.894 5.894 0 0 1 1.55.187v5.145a8.187 8.187 0 0 0 -1.859-.186c-3.844 0-6.572 2.914-7.317 7.006a15.357 15.357 0 0 0 -.248 2.542v16h-5.393z"/><path d="m411.565 83 6.572 17.731c.682 1.984 1.425 4.339 1.922 6.137h.124c.558-1.8 1.177-4.092 1.921-6.262l5.953-17.606h5.765l-8.183 21.389c-3.907 10.291-6.573 15.56-10.292 18.784a14.774 14.774 0 0 1 -6.7 3.534l-1.364-4.588a14.427 14.427 0 0 0 4.775-2.666 16.547 16.547 0 0 0 4.587-6.075 3.916 3.916 0 0 0 .434-1.3 4.757 4.757 0 0 0 -.372-1.426l-11.094-27.652z"/><path d="m166.667 39.893h-8.383v7.775h9.343v2.332h-12.127v-21.563h11.647v2.336h-8.863v6.816h8.383z"/><path d="m183.051 50-2.751-4.764c-1.12-1.824-1.824-3.007-2.5-4.256h-.064c-.608 1.249-1.216 2.4-2.336 4.289l-2.588 4.731h-3.2l6.588-10.907-6.336-10.656h3.236l2.847 5.056c.8 1.408 1.408 2.5 1.984 3.648h.1c.608-1.28 1.152-2.272 1.952-3.648l2.944-5.056h3.2l-6.56 10.5 6.716 11.063z"/><path d="m189.516 28.693a32.373 32.373 0 0 1 5.343-.416c2.752 0 4.768.64 6.048 1.792a5.8 5.8 0 0 1 1.888 4.512 6.346 6.346 0 0 1 -1.664 4.607 8.932 8.932 0 0 1 -6.591 2.369 9.574 9.574 0 0 1 -2.24-.193v8.636h-2.784zm2.784 10.4a9.337 9.337 0 0 0 2.3.223c3.359 0 5.407-1.631 5.407-4.607 0-2.848-2.016-4.224-5.088-4.224a11.679 11.679 0 0 0 -2.623.224z"/><path d="m206.54 28.437h2.784v19.231h9.215v2.332h-12z"/><path d="m238.826 39c0 7.423-4.512 11.358-10.015 11.358-5.695 0-9.695-4.415-9.695-10.942 0-6.848 4.256-11.327 10.015-11.327 5.888-.003 9.695 4.511 9.695 10.911zm-16.734.352c0 4.607 2.495 8.735 6.879 8.735 4.416 0 6.912-4.063 6.912-8.959 0-4.288-2.24-8.768-6.88-8.768-4.603-.003-6.911 4.253-6.911 8.989z"/><path d="m242.443 28.726a28.912 28.912 0 0 1 5.344-.449c2.976 0 4.9.544 6.239 1.76a5.372 5.372 0 0 1 1.7 4.1 5.664 5.664 0 0 1 -4.064 5.5v.095c1.664.577 2.655 2.113 3.167 4.352a34.422 34.422 0 0 0 1.661 5.916h-2.88a27.977 27.977 0 0 1 -1.439-5.151c-.64-2.976-1.792-4.1-4.32-4.193h-2.623v9.344h-2.785zm2.785 9.823h2.847c2.976 0 4.863-1.632 4.863-4.1 0-2.784-2.015-4-4.959-4.032a11.421 11.421 0 0 0 -2.751.257z"/><path d="m263.308 43.221-2.241 6.779h-2.879l7.327-21.567h3.36l7.359 21.567h-2.975l-2.3-6.783zm7.071-2.176-2.112-6.208c-.48-1.408-.8-2.688-1.12-3.936h-.064c-.32 1.281-.672 2.592-1.088 3.9l-2.112 6.24z"/><path d="m281.034 30.806h-6.559v-2.369h15.966v2.369h-6.59v19.194h-2.817zm-1.311 24.994c1.248-.225 2.4-.832 2.4-2.112a2.643 2.643 0 0 0 -1.088-1.92l2.08-.449a2.875 2.875 0 0 1 1.281 2.336c0 2.369-2.145 3.328-4.128 3.456z"/><path d="m295.627 28.437v21.563h-2.784v-21.563z"/><path d="m309.706 23.638 3.36 3.647h-2.336l-2.047-2.207h-.065l-2.048 2.207h-2.27l3.263-3.647zm.353 4.8v21.562h-2.785v-21.563z"/><path d="m314.923 50v-21.563h3.04l6.911 10.912a60.893 60.893 0 0 1 3.872 7.007l.064-.032c-.256-2.88-.32-5.5-.32-8.863v-9.024h2.624v21.563h-2.814l-6.85-10.939a68.445 68.445 0 0 1 -4.031-7.2l-.1.033c.159 2.719.224 5.311.224 8.894v9.212z"/></g><rect fill="#c8102e" height="95" rx="26.728" width="95" x="32.76" y="27.5"/><path d="m51.573 75.008h2.519v12.421h-2.519v-5.044h-5.691v5.044h-2.52v-12.421h2.52v5.011h5.691zm14.2 7.11c0 2.019-1 3.1-2.823 3.1s-2.839-1.11-2.839-3.185v-7.018h-2.52v7.1c0 3.493 1.941 5.5 5.325 5.5 3.417 0 5.377-2.042 5.377-5.6v-7.007h-2.52zm29.125 1.431-2.82-8.541h-2.062l-2.816 8.541-2.744-8.535h-2.686l4.33 12.414h2.086l2.824-8.155 2.823 8.155h2.105l4.318-12.414h-2.613zm9.881-1.466h4.583v-2.261h-4.583v-2.542h6.653v-2.264h-9.14v12.405h9.38v-2.263h-6.893zm9.9 5.33h2.487v-12.4h-2.487zm-41.4-2.578-1.13 2.587h-2.584l5.472-12.414h2.223l5.45 12.414h-2.642l-1.116-2.587zm.938-2.239h3.81l-1.911-4.445z" fill="#fff"/><path d="m80.26 59.194a15.831 15.831 0 0 1 -15.813-15.813h2.234a13.579 13.579 0 1 0 27.158 0h2.234a15.831 15.831 0 0 1 -15.813 15.813z" fill="#fff"/></svg>